<?xml version="1.0" encoding="utf-8"?>
<!-- Generator: Adobe Illustrator 24.1.3, SVG Export Plug-In . SVG Version: 6.00 Build 0)  -->
<svg version="1.1" id="Layer_1" xmlns="http://www.w3.org/2000/svg" xmlns:xlink="http://www.w3.org/1999/xlink" x="0px" y="0px"
	 viewBox="0 0 16 16" enable-background="new 0 0 16 16" xml:space="preserve">
<path fill="#FFFFFF" d="M12.98957,0.12536H3.58198c-1.66261,0-3.01043,1.34781-3.01043,3.01043v6.02086
	c0,1.66261,1.34781,3.01043,3.01043,3.01043h3.07816l3.03865,2.99538c0.18994,0.1909,0.44757,0.29909,0.71686,0.30104
	c0.14888,0.0007,0.29562-0.0355,0.4271-0.10536c0.31303-0.16665,0.49273-0.50741,0.45345-0.85985l-0.06209-2.3312h1.75546
	C14.65219,12.16707,16,10.81926,16,9.15664V3.13579C16,1.47317,14.65219,0.12536,12.98957,0.12536z M14.49479,9.15664
	c0,0.83131-0.67391,1.50521-1.50521,1.50521h-2.53252c-0.41565-0.00016-0.75273,0.33667-0.75289,0.75232
	c0,0.00699,0.00009,0.01399,0.00028,0.02098l0.04327,1.66326L7.4899,10.88012c-0.13879-0.13768-0.3257-0.21596-0.52118-0.21826
	H3.58198c-0.83131,0-1.50521-0.67391-1.50521-1.50521V3.13579c0-0.83131,0.67391-1.50521,1.50521-1.50521h9.40759
	c0.83131,0,1.50521,0.67391,1.50521,1.50521V9.15664z"/>
</svg>
